#!OML:ASF I:\Actors\actors\Patient Classification 2\Patient 1\Session 1\actor1.ASF
:FULLY-SPECIFIED
:DEGREES
281
root -1.13013 18.797 5.96648 4.18308 13.4696 -2.10447
lowerback 11.3906 -0.71007 4.41249
upperback -1.3946 -0.215977 1.33931
thorax -7.90874 -0.265723 -1.0282
lowerneck -25.8629 -7.31825 -8.61026
upperneck 7.43643 -7.43995 3.98339
head 6.79473 -3.47143 1.68864
rclavicle 8.99501e-015 5.1684e-015
rhumerus 45.5276 12.1485 -63.3269
rradius 46.7998
rwrist -35.3074
rhand -1.7723 -52.9889
rfingers 7.12502
rthumb 23.8918 -81.5228
lclavicle 8.99501e-015 5.1684e-015
lhumerus 45.963 -30.8058 77.511
lradius 52.3569
lwrist 54.7203
lhand -20.1588 0.3643
lfingers 7.12502
lthumb 6.18648 30.254
rfemur 6.93424 -10.9302 18.168
rtibia -7.95139e-015
rfoot -19.6542 -10.4529
rtoes 3.68675
lfemur -11.6989 -8.64471 -9.0111
ltibia 21.9337
lfoot -16.3784 5.13996
ltoes -56.8249
282
root -1.12734 18.7983 5.96351 4.22073 13.4205 -2.05732
lowerback 11.2184 -0.711533 4.2058
upperback -1.26163 -0.253297 1.44751
thorax -7.66642 -0.266616 -0.793421
lowerneck -25.7328 -7.18581 -8.41913
upperneck 7.33599 -7.29791 3.71506
head 6.7155 -3.42435 1.59496
rclavicle 1.04362e-014 -3.02153e-014
rhumerus 45.6246 12.3188 -63.1573
rradius 46.8082
rwrist -35.4885
rhand -1.84124 -53.0197
rfingers 7.12502
rthumb 23.8257 -81.5622
lclavicle 1.04362e-014 -3.02153e-014
lhumerus 45.9458 -30.6446 77.6346
lradius 52.2883
lwrist 54.8151
lhand -20.1609 0.362243
lfingers 7.12502
lthumb 6.18448 30.252
rfemur 6.88268 -10.8835 18.1124
rtibia -1.11319e-014
rfoot -19.6263 -10.4995
rtoes 3.57294
lfemur -11.7108 -8.59226 -9.07339
ltibia 21.9022
lfoot -16.343 5.1414
ltoes -56.8374
283
root -1.12491 18.7992 5.96002 4.25588 13.3939 -1.99947
lowerback 11.2536 -0.703197 4.19519
upperback -1.26859 -0.243427 1.4214
thorax -7.69359 -0.262515 -0.816498
lowerneck -25.6257 -7.14023 -8.41833
upperneck 7.46043 -7.25199 3.71406
head 6.73887 -3.40514 1.60156
rclavicle -1.81391e-014 -1.07344e-014
rhumerus 45.4285 12.3948 -63.1659
rradius 46.8056
rwrist -35.5725
rhand -2.05586 -52.9996
rfingers 7.12502
rthumb 23.6198 -81.5688
lclavicle -1.81391e-014 -1.07344e-014
lhumerus 45.7336 -30.7259 77.8182
lradius 52.2307
lwrist 54.8076
lhand -20.1316 0.573069
lfingers 7.12502
lthumb 6.21281 30.462
rfemur 6.83959 -10.8602 18.0488
rtibia 2.38542e-014
rfoot -19.6112 -10.5502
rtoes 3.43284
lfemur -11.7258 -8.5628 -9.14477
ltibia 21.8701
lfoot -16.3154 5.1365
ltoes -56.8691
284
root -1.1218 18.8003 5.95643 4.29784 13.3729 -1.95664
lowerback 11.4381 -0.688768 4.3845
upperback -1.39553 -0.192793 1.28863
thorax -7.93569 -0.255008 -1.07013
lowerneck -25.6073 -7.17045 -8.53931
upperneck 7.84042 -7.28823 3.86831
head 6.87627 -3.41501 1.66138
rclavicle -4.67144e-015 2.46493e-014
rhumerus 44.8918 12.3779 -63.4622
rradius 46.8586
rwrist -35.3871
rhand -2.19973 -53.0133
rfingers 7.12502
rthumb 23.4818 -81.6002
lclavicle -4.67144e-015 2.46493e-014
lhumerus 45.2974 -30.9915 78.0298
lradius 52.2541
lwrist 54.7309
lhand -20.0728 0.937
lfingers 7.12502
lthumb 6.26953 30.8242
rfemur 6.79305 -10.8417 17.9974
rtibia -2.70347e-014
rfoot -19.6055 -10.5563
rtoes 3.50215
lfemur -11.7573 -8.51103 -9.20095
ltibia 21.8442
lfoot -16.2955 5.11859
ltoes -56.8745
285
root -1.11907 18.8007 5.95354 4.3248 13.3318 -1.97453
lowerback 11.5065 -0.683013 4.50987
upperback -1.44537 -0.164441 1.25033
thorax -8.02842 -0.250106 -1.18555
lowerneck -25.6013 -7.16636 -8.57399
upperneck 8.12787 -7.28261 3.8832
head 6.97325 -3.41447 1.66887
rclavicle -1.50579e-014 -3.22031e-014
rhumerus 44.5447 12.4097 -63.7198
rradius 46.8339
rwrist -35.1516
rhand -2.14874 -53.0703
rfingers 7.12502
rthumb 23.5307 -81.6509
lclavicle -1.50579e-014 -3.22031e-014
lhumerus 44.9224 -31.105 78.1868
lradius 52.3079
lwrist 54.7079
lhand -19.9983 1.15372
lfingers 7.12502
lthumb 6.34143 31.0388
rfemur 6.75016 -10.7995 18.0109
rtibia -9.54166e-015
rfoot -19.6067 -10.5521
rtoes 3.67281
lfemur -11.7847 -8.40913 -9.19069
ltibia 21.8265
lfoot -16.2794 5.08308
ltoes -56.9564
286
root -1.11714 18.8006 5.95033 4.34823 13.2861 -1.9705
lowerback 11.5053 -0.681555 4.4941
upperback -1.43169 -0.163088 1.27798
thorax -8.01266 -0.247556 -1.14768
lowerneck -25.5179 -7.1363 -8.55616
upperneck 8.24744 -7.25587 3.85163
head 6.9975 -3.4065 1.65973
rclavicle 3.8763e-015 -2.14687e-014
rhumerus 44.412 12.5183 -63.7642
rradius 46.7625
rwrist -35.119
rhand -2.08686 -53.0482
rfingers 7.12502
rthumb 23.5901 -81.6213
lclavicle 3.8763e-015 -2.14687e-014
lhumerus 44.6841 -31.1175 78.3177
lradius 52.2854
lwrist 54.7506
lhand -19.953 1.10015
lfingers 7.12502
lthumb 6.38522 30.9839
rfemur 6.71344 -10.7541 18.0032
rtibia -3.18055e-015
rfoot -19.6066 -10.5657
rtoes 3.74779
lfemur -11.8109 -8.26907 -9.20398
ltibia 21.8173
lfoot -16.2391 5.03128
ltoes -57.0884
287
root -1.11579 18.8008 5.94625 4.38302 13.2403 -1.94618
lowerback 11.5201 -0.666997 4.42846
upperback -1.42815 -0.149023 1.31885
thorax -8.01598 -0.236755 -1.06986
lowerneck -25.4112 -7.10013 -8.57449
upperneck 8.34464 -7.21471 3.84545
head 7.01231 -3.3906 1.66735
rclavicle -2.18166e-014 -1.03368e-014
rhumerus 44.2456 12.6578 -63.6585
rradius 46.8098
rwrist -35.2529
rhand -2.12614 -52.9832
rfingers 7.12502
rthumb 23.5524 -81.5611
lclavicle -2.18166e-014 -1.03368e-014
lhumerus 44.4325 -31.1431 78.5548
lradius 52.2839
lwrist 54.7612
lhand -19.9857 1.05728
lfingers 7.12502
lthumb 6.35362 30.942
rfemur 6.65767 -10.7102 17.9791
rtibia -4.13472e-014
rfoot -19.5799 -10.5881
rtoes 3.61863
lfemur -11.8466 -8.19107 -9.2328
ltibia 21.8099
lfoot -16.2172 5.01673
ltoes -57.0939
